<svg width="1000" height="1000" viewBox="0 0 1000 1000" fill="none" xmlns="http://www.w3.org/2000/svg">
<defs>
    <clipPath id="top-clip">
        <rect x="0" y="0" width="1000" height="430" />
    </clipPath>

    <linearGradient id="paint0_linear_1_5" x1="198.08" y1="499.65" x2="800.25" y2="499.65" gradientUnits="userSpaceOnUse">
        <stop stop-color="#036A38"/>
        <stop offset="0.4" stop-color="#3B9030"/>
        <stop offset="1" stop-color="#94CE24"/>
    </linearGradient>
    <linearGradient id="paint1_linear_1_5" x1="198.08" y1="499.65" x2="800.25" y2="499.65" gradientUnits="userSpaceOnUse">
        <stop stop-color="#036A38"/>
        <stop offset="0.4" stop-color="#3B9030"/>
        <stop offset="1" stop-color="#94CE24"/>
    </linearGradient>
    <linearGradient id="paint2_linear_1_5" x1="198.08" y1="499.65" x2="800.25" y2="499.65" gradientUnits="userSpaceOnUse">
        <stop stop-color="#036A38"/>
        <stop offset="0.4" stop-color="#3B9030"/>
        <stop offset="1" stop-color="#94CE24"/>
    </linearGradient>
</defs>

<path d="M553.36 776.68C553.36 675.83 539.38 591.93 466.69 519.6C414.58 467.74 334.94 440.62 221.32 440.62H202.8L200.49 460.84C188.8 553.48 220.04 645.32 286.2 711.13C343 767.66 418.57 799.29 499 799.29C511.6 799.29 523.39 798.73 535.89 797.17L553.35 795.1V776.67L553.36 776.68ZM330.11 668.43C286.23 624.78 261.83 568.22 260.24 507.47C335.11 512.32 390.05 531.71 423.72 565.22C468.34 609.63 487.73 657.69 492.13 737.94C430.92 736.27 373.61 711.74 330.11 668.44V668.43Z" fill="url(#paint0_linear_1_5)"/>

<path d="M797.85 460.84L795.53 440.62H777.01C663.39 440.62 582.42 467.74 530.29 519.6C528.4 521.48 526.73 524.04 524.91 525.93C543.25 549.42 556.97 574 567.21 599.32C599.58 549.43 654.05 503.01 740.46 477.37C649.76 536.09 606.84 622.69 590.11 690.42C593.61 717.81 594.89 746.5 594.89 776.67C594.89 779.27 594.66 781.85 594.33 784.37C638.21 769.79 678.43 744.59 712.02 711.15C778.2 645.32 809.55 553.49 797.87 460.85L797.85 460.84Z" fill="url(#paint1_linear_1_5)"/>

<g clip-path="url(#top-clip)">
    <path d="M779.55 367.5L732.7 258.84C727.2 246.14 715.18 245.44 706.01 257.31L692.98 274.16C640.47 229.82 572.64 200 498.54 200C367 200 254.94 284.84 214.04 398.68H221.33C243.69 398.68 264.88 402.57 285.02 404.45C321.69 323.33 403.49 268.05 498.54 268.05C557.29 268.05 611.03 290.46 652.17 326.18L651.95 326.83L638.6 344.28C629.41 356.16 633.17 367.61 646.93 369.62L764.48 386.94C778.28 388.97 785.05 380.24 779.55 367.52V367.5Z" fill="url(#paint2_linear_1_5)">
        <animateTransform
            attributeName="transform"
            type="rotate"
            from="0 500 500"
            to="360 500 500"
            dur="2s"
            repeatCount="indefinite" />
    </path>
</g>

</svg>
