<?xml version="1.0" encoding="UTF-8"?>
<svg id="wattnet-full" xmlns="http://www.w3.org/2000/svg" xmlns:xlink="http://www.w3.org/1999/xlink" viewBox="0 0 2750 1000">
  <defs>
    <style>
      .cls-1 {
        fill: #1a1a1a;
      }

      .cls-2 {
        fill: url(#linear-gradient);
      }
    </style>
    <linearGradient id="linear-gradient" x1="400" y1="500.67" x2="801.56" y2="500.67" gradientUnits="userSpaceOnUse">
      <stop offset="0" stop-color="#036a38"/>
      <stop offset=".4" stop-color="#3b9030"/>
      <stop offset="1" stop-color="#94ce24"/>
    </linearGradient>
  </defs>
  <g id="color">
    <g>
      <path class="cls-1" d="M959.33,599.49l-55.46-198.3h50.42l33.74,127.88,39.95-127.88h44.6l39.95,128.27,33.36-128.27h49.65l-55.85,198.3h-50.81l-39.17-126.74-39.17,126.74h-51.2Z"/>
      <path class="cls-1" d="M1281.25,602.92c-14.48,0-27.28-2.61-38.4-7.8-11.12-5.2-19.78-12.37-25.99-21.5s-9.31-19.66-9.31-31.59c0-19.03,7.3-33.81,21.91-44.34,14.61-10.53,34.71-15.79,60.31-15.79,17.58,0,34.13,2.66,49.65,7.99v-14.46c0-11.42-3.62-19.98-10.86-25.69-7.24-5.71-17.84-8.56-31.8-8.56-8.53,0-17.71,1.27-27.54,3.81-9.83,2.54-21.2,6.6-34.13,12.18l-19.39-38.44c16.03-7.36,31.35-12.75,45.96-16.18,14.6-3.43,29.28-5.14,44.02-5.14,27.4,0,48.61,6.41,63.61,19.22,14.99,12.82,22.5,30.89,22.5,54.24v128.65h-52.36v-14.08c-8.28,6.09-17.2,10.53-26.76,13.32-9.57,2.79-20.04,4.19-31.42,4.19ZM1257.98,540.88c0,7.61,3.36,13.64,10.08,18.08,6.72,4.44,15.77,6.66,27.15,6.66,8.53,0,16.54-1.08,24.05-3.24,7.5-2.15,14.22-5.52,20.17-10.09v-28.55c-6.47-2.53-13.19-4.44-20.17-5.71-6.98-1.27-14.48-1.9-22.5-1.9-12.16,0-21.66,2.22-28.51,6.66-6.85,4.44-10.28,10.47-10.28,18.08Z"/>
      <path class="cls-1" d="M1522.49,602.54c-22.5,0-39.5-5.01-51-15.03-11.51-10.02-17.26-24.67-17.26-43.96v-98.58h-41.5v-43.77h41.5v-51l53.14-11.42v62.42h57.79v43.77h-57.79v87.92c0,9.13,2.07,15.67,6.21,19.6,4.13,3.94,11.38,5.9,21.72,5.9,5.17,0,9.89-.32,14.16-.95,4.27-.63,8.98-1.84,14.16-3.62v43.01c-5.43,1.78-12.16,3.17-20.17,4.19-8.02,1.01-15,1.52-20.94,1.52Z"/>
      <path class="cls-1" d="M1691.21,602.54c-22.5,0-39.5-5.01-51-15.03-11.51-10.02-17.26-24.67-17.26-43.96v-98.58h-41.5v-43.77h41.5v-51l53.14-11.42v62.42h57.79v43.77h-57.79v87.92c0,9.13,2.07,15.67,6.21,19.6,4.13,3.94,11.38,5.9,21.72,5.9,5.17,0,9.89-.32,14.16-.95,4.27-.63,8.98-1.84,14.16-3.62v43.01c-5.43,1.78-12.16,3.17-20.17,4.19-8.02,1.01-15,1.52-20.94,1.52Z"/>
      <path class="cls-1" d="M1760.24,599.49v-198.3h53.14v15.99c15.51-13.19,34.39-19.79,56.63-19.79,15.77,0,29.67,3.3,41.69,9.9,12.02,6.6,21.39,15.86,28.12,27.78,6.72,11.93,10.08,25.76,10.08,41.49v122.94h-53.14v-115.33c0-12.94-3.75-23.15-11.25-30.64-7.5-7.48-17.71-11.23-30.64-11.23-9.05,0-17,1.71-23.85,5.14-6.85,3.43-12.74,8.31-17.65,14.65v137.4h-53.14Z"/>
      <path class="cls-1" d="M2089.53,603.3c-20.17,0-38.46-4.57-54.88-13.7-16.42-9.13-29.42-21.44-38.98-36.92-9.57-15.47-14.35-32.86-14.35-52.14s4.59-36.66,13.77-52.14c9.18-15.47,21.65-27.78,37.43-36.92,15.77-9.13,33.36-13.7,52.75-13.7s36.59,4.63,51.58,13.89c14.99,9.27,26.82,21.95,35.49,38.06,8.66,16.12,12.99,34.32,12.99,54.62v13.7h-149.71c2.33,7.87,6.14,14.97,11.44,21.31,5.3,6.35,11.89,11.23,19.78,14.65,7.88,3.43,16.35,5.14,25.4,5.14s17.39-1.33,25.02-4c7.62-2.66,14.16-6.53,19.59-11.61l34.91,31.21c-12.41,9.9-25.15,17.13-38.2,21.69-13.06,4.57-27.73,6.85-44.02,6.85ZM2034.84,480.74h98.13c-1.81-7.86-5.11-14.78-9.89-20.74-4.79-5.96-10.47-10.66-17.07-14.08s-13.9-5.14-21.91-5.14-15.39,1.65-22.11,4.95c-6.73,3.3-12.41,7.93-17.07,13.89-4.65,5.96-8.02,13.01-10.08,21.12Z"/>
      <path class="cls-1" d="M2307.89,602.54c-22.5,0-39.5-5.01-51-15.03-11.51-10.02-17.26-24.67-17.26-43.96v-98.58h-41.5v-43.77h41.5v-51l53.14-11.42v62.42h57.79v43.77h-57.79v87.92c0,9.13,2.07,15.67,6.21,19.6,4.13,3.94,11.38,5.9,21.72,5.9,5.17,0,9.89-.32,14.16-.95,4.27-.63,8.98-1.84,14.16-3.62v43.01c-5.43,1.78-12.16,3.17-20.17,4.19-8.02,1.01-15,1.52-20.94,1.52Z"/>
    </g>
    <path id="SvgjsG1852" class="cls-2" d="M799.96,474.85l-1.55-13.45h-12.35c-75.76,0-129.77,18.04-164.52,52.54-1.26,1.25-2.38,2.95-3.59,4.21,12.23,15.62,21.38,31.98,28.21,48.82,21.58-33.19,57.91-64.07,115.53-81.13-60.48,39.06-89.11,96.67-100.26,141.73,2.34,18.22,3.18,37.3,3.18,57.38,0,1.73-.15,3.44-.37,5.12,29.26-9.7,56.08-26.47,78.48-48.71,44.13-43.79,65.04-104.88,57.25-166.5ZM636.92,684.96c0-67.09-9.32-122.9-57.8-171.01-34.75-34.5-87.86-52.54-163.62-52.54h-12.35l-1.54,13.45c-7.8,61.62,13.03,122.72,57.16,166.5,37.88,37.61,88.27,58.65,141.9,58.65,8.4,0,16.26-.37,24.6-1.41l11.65-1.38v-12.26h0ZM488.05,612.95c-29.26-29.04-45.54-66.66-46.59-107.07,49.93,3.23,86.56,16.12,109.02,38.42,29.76,29.54,42.69,61.51,45.62,114.89-40.82-1.11-79.04-17.43-108.04-46.24ZM787.75,412.76l-31.24-72.28c-3.67-8.45-11.69-8.91-17.8-1.02l-8.69,11.21c-35.02-29.49-80.25-49.33-129.66-49.33-87.72,0-162.45,56.44-189.72,132.17h4.86c14.91,0,29.04,2.59,42.47,3.84,24.45-53.96,79.01-90.74,142.39-90.74,39.18,0,75.01,14.91,102.45,38.67l-.14.43-8.9,11.61c-6.13,7.9-3.62,15.52,5.56,16.86l78.39,11.52c9.2,1.35,13.72-4.46,10.05-12.92Z"/>
  </g>
</svg>